<svg width="16" height="16" viewBox="0 0 16 16" fill="none" xmlns="http://www.w3.org/2000/svg">
<path d="M7.20008 2.10726L7.20017 2.10717L7.89392 1.41343C8.17856 1.12878 8.63865 1.12891 8.92006 1.41334L8.92015 1.41343L14.9952 7.4853C15.2798 7.76994 15.2797 8.23003 14.9952 8.51143L14.9951 8.51152L8.92015 14.5865C8.6355 14.8712 8.17541 14.871 7.89401 14.5866L7.89392 14.5865L7.20017 13.8928C6.91264 13.6052 6.91862 13.136 7.21229 12.8544C7.2123 12.8544 7.21231 12.8544 7.21231 12.8544L10.9779 9.26694L11.0203 9.22653H10.9617H1.98047C1.57779 9.22653 1.25391 8.90265 1.25391 8.49997V7.49997C1.25391 7.09729 1.57779 6.77341 1.98047 6.77341H10.9617H11.0203L10.9779 6.733L7.21226 3.14551L7.21223 3.14547C6.91552 2.86391 6.90954 2.39478 7.20008 2.10726Z" fill="white" stroke="white" stroke-width="0.0468751"/>
</svg>
