<svg width="102" height="25" viewBox="0 0 102 25" fill="none" xmlns="http://www.w3.org/2000/svg">
<path fill-rule="evenodd" clip-rule="evenodd" d="M100.496 17.2105C100.181 16.9822 99.9314 16.9496 99.7252 17.3844C96.1868 25.048 90.228 21.2217 90.825 21.5587C92.1492 20.9499 95.6225 18.1671 95.1014 14.3081C94.7868 11.9492 92.7678 10.9057 90.6188 11.2861C86.8742 11.9384 85.5067 15.9821 86.2012 19.5585C86.3206 20.1781 86.5377 20.6782 86.7658 21.1782C82.5435 24.6241 80.8613 18.1019 80.6658 17.3192C80.6551 17.2757 83.9329 14.5472 84.8446 8.03587C85.7997 1.22011 83.6289 -0.029992 81.404 0.0134897C77.2904 0.0895826 76.1832 8.68809 77.6701 15.8517C77.5507 15.8843 76.9646 16.2104 76.0313 16.243C75.3583 14.1233 72.482 12.2645 71.7331 12.9819C69.8553 14.7755 72.1889 18.2758 73.8389 18.5476C72.851 24.6459 66.6644 23.1349 67.8148 15.493C69.8228 11.7535 71.3641 6.17702 71.0819 2.81805C70.9842 1.63318 70.105 0.0352305 68.1188 0.111323C64.2983 0.263511 63.8858 8.86201 64.3308 14.9712C64.3092 14.819 64.092 15.7104 62.5289 16.1561C62.1599 14.1016 58.8496 12.0253 58.0682 13.0254C56.6138 14.8842 59.1427 18.1997 60.3365 18.428C59.3489 24.5263 53.1623 23.0153 54.3127 15.3734C56.3316 11.634 57.862 6.06831 57.5905 2.70937C57.493 1.52448 56.6138 -0.0734737 54.6273 0.00261925C50.8068 0.154805 50.3944 8.7533 50.8396 14.8625C50.8177 14.7103 50.6006 15.6343 48.9725 16.0691C48.9184 13.395 45.5971 12.1775 44.7939 13.0254C43.372 14.5472 45.1194 17.6671 46.7366 18.428C45.749 24.5263 39.5624 23.0153 40.7128 15.3734C42.7208 11.634 44.2621 6.05745 43.9799 2.69848C43.8931 1.52448 43.0139 -0.0734737 41.0275 0.00261925C37.2069 0.154805 36.9032 9.18813 37.3481 15.2973C36.089 20.6999 31.867 27.4396 32.4204 13.9276C32.4747 12.9819 32.529 12.6232 32.0623 12.2645C31.7042 11.9927 30.9009 12.1231 30.4667 12.134C29.9349 12.1558 29.7939 12.471 29.6852 12.9384C29.414 14.1559 29.3597 15.3408 29.3162 16.9605C29.2947 17.7214 29.2294 18.0693 28.9363 19.102C28.6433 20.1346 26.9936 22.0152 26.0819 21.7C24.8227 21.2652 25.2352 17.7105 25.4739 15.2647C25.6694 13.3298 25.0399 12.471 23.4335 12.1558C22.4892 11.9601 21.9139 11.9927 20.9371 11.6774C20.0037 11.384 19.7974 9.62295 17.822 10.21C16.7367 10.5361 17.4313 12.8297 17.1708 14.5364C15.89 22.9175 13.2309 23.1458 11.9935 19.0802C17.5507 5.42696 13.589 0.0461009 11.2771 0.0461009C8.86761 0.0461009 6.11073 1.70928 7.27207 12.3623C6.70768 12.1992 6.53402 12.1123 5.90449 12.1123C2.3987 12.1014 0 14.9495 0 18.4606C0 21.9718 2.3987 24.8198 5.91536 24.8198C7.98843 24.8198 9.44284 23.8741 10.5499 22.4174C11.2663 23.4501 12.1455 24.8415 13.7518 24.7763C18.5275 24.5915 19.9168 14.7755 20.0796 14.2211C20.5898 14.2972 21.0782 14.4494 21.5449 14.5255C22.3264 14.6451 22.3915 14.9603 22.3698 15.743C22.1636 22.4174 23.3901 24.7546 26.1796 24.7546C27.7316 24.7546 29.1209 23.2219 30.0761 22.1348C30.7925 23.6132 31.9211 24.7111 33.4517 24.7546C37.1419 24.8415 38.5638 18.9498 38.4335 19.7216C38.3358 20.3303 39.6274 24.7111 43.4372 24.7328C48.1476 24.7546 49.0268 19.5694 49.1246 18.6998C49.1355 18.5258 49.1462 18.5476 49.1246 18.6998C49.1246 18.7106 49.1246 18.7324 49.1246 18.7541C50.6224 18.4715 51.3929 17.6779 51.3929 17.6779C51.3929 17.6779 52.5977 24.8198 57.0371 24.7437C61.65 24.6567 62.5289 19.9716 62.6376 19.0585C62.6485 18.8411 62.6592 18.8628 62.6376 19.0585C62.6376 19.0694 62.6376 19.0802 62.6376 19.0802C64.4176 18.428 64.8844 17.7866 64.8844 17.7866C64.8844 17.7866 65.8395 24.7872 70.5283 24.8524C74.7072 24.9069 76.2591 20.6129 76.27 18.8193C76.9755 18.8302 78.2781 18.3954 78.2455 18.3736C78.2455 18.3736 79.7759 24.4937 84.0523 24.8089C86.0603 24.961 87.5688 23.6784 88.4264 23.0914C90.4451 24.7328 97.1638 26.82 101.408 19.6129C102.015 18.5911 100.724 17.3627 100.496 17.2105ZM5.74168 22.4392C3.69032 22.4392 2.377 20.5369 2.377 18.4932C2.377 16.4496 3.58178 14.5472 5.63316 14.5472C6.55574 14.5472 7.06586 14.6451 7.79306 15.2756C7.92332 15.7865 8.29234 16.9714 8.47687 17.5149C8.71564 18.2323 9.0087 18.8519 9.2909 19.515C8.86761 21.2326 7.52171 22.4392 5.74168 22.4392ZM10.7345 15.3299C10.6476 15.1886 10.6694 15.2756 10.5717 15.1451C10.2026 14.1233 9.47542 11.8405 9.3886 9.24248C9.2909 6.30748 9.77934 2.86154 11.2229 2.86154C12.1997 2.86154 13.2417 9.84037 10.7345 15.3299ZM39.6165 12.2753C39.3887 10.5361 39.3777 2.76372 41.2339 2.98111C42.265 3.39419 40.5825 10.7209 39.6165 12.2753ZM53.2164 12.2753C52.9885 10.5361 52.9776 2.76372 54.8338 2.98111C55.8649 3.39419 54.1824 10.7209 53.2164 12.2753ZM66.7078 12.384C66.4797 10.6448 66.4691 2.8724 68.325 3.08982C69.3561 3.49204 67.6738 10.8296 66.7078 12.384ZM81.5993 2.5137C83.3033 2.33976 83.2274 9.78601 79.8193 14.482C79.3741 12.7862 78.7014 3.1007 81.5993 2.5137ZM88.7629 18.5476C88.2202 15.7756 89.6312 13.9602 91.0856 13.7646C91.5958 13.6885 92.3338 14.0146 92.4747 14.6342C92.7137 15.7973 92.4422 17.5257 89.1753 19.7107C89.1862 19.7216 88.8823 19.1563 88.7629 18.5476ZM31.0312 10.0034C32.1926 10.0034 33.1368 9.05767 33.1368 7.89456C33.1368 6.73142 32.1926 5.78569 31.0312 5.78569C29.8699 5.78569 28.9254 6.73142 28.9254 7.89456C28.9254 9.05767 29.8699 10.0034 31.0312 10.0034Z" fill="#1E2E50"/>
</svg>
