<svg width="22" height="22" viewBox="0 0 22 22" fill="none" xmlns="http://www.w3.org/2000/svg">
<g clip-path="url(#clip0_157_509)">
<path d="M10.9994 0.876587C5.41732 0.876587 0.875977 5.41793 0.875977 11C0.875977 16.5821 5.41732 21.1235 10.9994 21.1235C16.5815 21.1235 21.1229 16.5821 21.1229 11C21.1229 5.41793 16.5815 0.876587 10.9994 0.876587ZM17.6927 5.54504C18.897 7.01645 19.6263 8.89055 19.6454 10.9315C19.3603 10.8712 16.5015 10.2913 13.6243 10.6532C13.3895 10.08 13.1679 9.5758 12.8643 8.95448C16.0614 7.64917 17.5104 5.79164 17.6927 5.54504ZM16.7314 4.54511C16.5759 4.76664 15.2743 6.51616 12.1995 7.66864C10.7826 5.06528 9.2121 2.92662 8.97309 2.60659C11.7152 1.94559 14.6049 2.65843 16.7314 4.54511ZM7.32318 3.18783C7.55116 3.50048 9.09633 5.64179 10.5291 8.18869C6.48432 9.26279 2.92181 9.24732 2.53508 9.24222C3.09579 6.55898 4.90404 4.32888 7.32318 3.18783ZM2.35245 11.0132C2.35245 10.9248 2.3542 10.8368 2.35686 10.749C2.73518 10.7567 6.92547 10.8107 11.2437 9.51841C11.4912 10.0029 11.7277 10.4946 11.9447 10.9859C8.81794 11.8666 5.97705 14.3955 4.5754 16.7948C3.19433 15.2619 2.35245 13.2341 2.35245 11.0132ZM5.69183 17.8348C6.59507 15.9884 9.04637 13.6049 12.5325 12.4157C13.7465 15.5704 14.2485 18.2143 14.3771 18.973C11.5967 20.1573 8.25343 19.8324 5.69183 17.8348ZM15.8308 18.1813C15.7422 17.6553 15.2819 15.124 14.1509 12.0161C16.8606 11.5824 19.2412 12.2924 19.5371 12.3858C19.1516 14.7917 17.7706 16.8696 15.8308 18.1813Z" fill="#F6F9FC"/>
</g>
<defs>
<clipPath id="clip0_157_509">
<rect width="20.9" height="20.9" fill="white" transform="translate(0.549805 0.550049)"/>
</clipPath>
</defs>
</svg>
