<svg width="21" height="20" viewBox="0 0 21 20" fill="none" xmlns="http://www.w3.org/2000/svg">
<path d="M6.97521 16.0986C6.97521 16.1802 6.88133 16.2455 6.76295 16.2455C6.62824 16.2578 6.53436 16.1924 6.53436 16.0986C6.53436 16.0169 6.62824 15.9516 6.74662 15.9516C6.86908 15.9394 6.97521 16.0047 6.97521 16.0986ZM5.7057 15.9149C5.67713 15.9965 5.75877 16.0904 5.88123 16.1149C5.98736 16.1557 6.10982 16.1149 6.13432 16.0332C6.15881 15.9516 6.08125 15.8577 5.95879 15.821C5.85266 15.7924 5.73428 15.8332 5.7057 15.9149ZM7.50996 15.8455C7.39158 15.874 7.30994 15.9516 7.32219 16.0455C7.33443 16.1271 7.44057 16.1802 7.56303 16.1516C7.68141 16.123 7.76305 16.0455 7.7508 15.9639C7.73855 15.8863 7.62834 15.8332 7.50996 15.8455ZM10.1959 0.203125C4.53416 0.203125 0.203125 4.5015 0.203125 10.1633C0.203125 14.6903 3.05238 18.5641 7.12217 19.9275C7.64467 20.0214 7.82836 19.6989 7.82836 19.4336C7.82836 19.1805 7.81611 17.7844 7.81611 16.9272C7.81611 16.9272 4.95869 17.5395 4.35863 15.7108C4.35863 15.7108 3.89328 14.5229 3.22383 14.2167C3.22383 14.2167 2.28904 13.5759 3.28914 13.5881C3.28914 13.5881 4.30557 13.6697 4.8648 14.6413C5.75877 16.2169 7.25688 15.7638 7.84061 15.4944C7.93449 14.8413 8.19983 14.3882 8.49373 14.1188C6.21188 13.8657 3.90961 13.535 3.90961 9.60813C3.90961 8.48557 4.21984 7.92225 4.87297 7.20381C4.76684 6.93848 4.41986 5.84449 4.9791 4.43211C5.83225 4.16678 7.7957 5.53426 7.7957 5.53426C8.61211 5.30567 9.48975 5.18729 10.3592 5.18729C11.2287 5.18729 12.1063 5.30567 12.9227 5.53426C12.9227 5.53426 14.8862 4.1627 15.7393 4.43211C16.2986 5.84858 15.9516 6.93848 15.8455 7.20381C16.4986 7.92633 16.8986 8.48965 16.8986 9.60813C16.8986 13.5473 14.4943 13.8616 12.2125 14.1188C12.588 14.4413 12.9064 15.0536 12.9064 16.0128C12.9064 17.3885 12.8942 19.0907 12.8942 19.4254C12.8942 19.6907 13.0819 20.0132 13.6004 19.9193C17.6824 18.5641 20.45 14.6903 20.45 10.1633C20.45 4.5015 15.8577 0.203125 10.1959 0.203125ZM4.17086 14.2821C4.11779 14.3229 4.13004 14.4168 4.19943 14.4943C4.26475 14.5596 4.35863 14.5882 4.4117 14.5351C4.46477 14.4943 4.45252 14.4004 4.38313 14.3229C4.31781 14.2576 4.22393 14.229 4.17086 14.2821ZM3.73 13.9514C3.70143 14.0045 3.74225 14.0698 3.82389 14.1106C3.8892 14.1514 3.97084 14.1392 3.99941 14.082C4.02799 14.029 3.98717 13.9637 3.90553 13.9228C3.82389 13.8983 3.75857 13.9106 3.73 13.9514ZM5.05258 15.4046C4.98727 15.4577 5.01176 15.5801 5.10564 15.6577C5.19953 15.7516 5.31791 15.7638 5.37098 15.6985C5.42404 15.6455 5.39955 15.523 5.31791 15.4454C5.22811 15.3515 5.10565 15.3393 5.05258 15.4046ZM4.58723 14.8046C4.52191 14.8454 4.52191 14.9515 4.58723 15.0454C4.65254 15.1393 4.76275 15.1801 4.81582 15.1393C4.88113 15.0862 4.88113 14.9801 4.81582 14.8862C4.75867 14.7923 4.65254 14.7515 4.58723 14.8046Z" fill="#F6F9FC"/>
</svg>
