<svg width="22" height="22" viewBox="0 0 22 22" fill="none" xmlns="http://www.w3.org/2000/svg">
<g clip-path="url(#clip0_157_500)">
<path d="M19.3014 6.74319C19.3147 6.92884 19.3147 7.11453 19.3147 7.30018C19.3147 12.9628 15.0048 19.4874 7.12747 19.4874C4.70062 19.4874 2.44619 18.7845 0.549805 17.5645C0.894614 17.6043 1.22612 17.6176 1.58419 17.6176C3.58663 17.6176 5.43 16.9412 6.90202 15.7875C5.01889 15.7477 3.44078 14.5144 2.89705 12.8169C3.1623 12.8567 3.42751 12.8832 3.70603 12.8832C4.0906 12.8832 4.47521 12.8302 4.83324 12.7374C2.87056 12.3395 1.3985 10.6155 1.3985 8.53349V8.48046C1.96872 8.79874 2.63184 8.99765 3.33465 9.02415C2.1809 8.25497 1.42503 6.94211 1.42503 5.45682C1.42503 4.66115 1.63718 3.93177 2.00852 3.29522C4.11709 5.89445 7.28658 7.59189 10.8406 7.77758C10.7743 7.4593 10.7345 7.1278 10.7345 6.79626C10.7345 4.4357 12.6442 2.51282 15.018 2.51282C16.2513 2.51282 17.3652 3.03001 18.1476 3.86548C19.1157 3.67983 20.044 3.32175 20.8662 2.83109C20.5479 3.82572 19.8716 4.66119 18.9831 5.19161C19.8451 5.09883 20.6806 4.86007 21.4497 4.52857C20.8663 5.37726 20.1369 6.13313 19.3014 6.74319Z" fill="#F6F9FC"/>
</g>
<defs>
<clipPath id="clip0_157_500">
<rect width="20.9" height="20.9" fill="white" transform="translate(0.549805 0.550049)"/>
</clipPath>
</defs>
</svg>
