<svg width="20" height="20" viewBox="0 0 20 20" fill="none" xmlns="http://www.w3.org/2000/svg">
<path d="M17.2715 0.856323H2.90273C2.38308 0.856323 1.8847 1.06276 1.51725 1.43021C1.14979 1.79767 0.943359 2.29604 0.943359 2.8157L0.943359 17.1844C0.943359 17.7041 1.14979 18.2025 1.51725 18.5699C1.8847 18.9374 2.38308 19.1438 2.90273 19.1438H8.50532V12.9265H5.93364V10.0001H8.50532V7.76965C8.50532 5.23267 10.0157 3.83131 12.329 3.83131C13.4368 3.83131 14.5953 4.02888 14.5953 4.02888V6.51892H13.3189C12.0612 6.51892 11.6689 7.2994 11.6689 8.09989V10.0001H14.4765L14.0275 12.9265H11.6689V19.1438H17.2715C17.7911 19.1438 18.2895 18.9374 18.657 18.5699C19.0244 18.2025 19.2309 17.7041 19.2309 17.1844V2.8157C19.2309 2.29604 19.0244 1.79767 18.657 1.43021C18.2895 1.06276 17.7911 0.856323 17.2715 0.856323Z" fill="#F6F9FC"/>
</svg>
