<svg width="60" height="25" viewBox="0 0 60 25" fill="none" xmlns="http://www.w3.org/2000/svg">
<path fill-rule="evenodd" clip-rule="evenodd" d="M59.8124 12.8434C59.8124 8.59549 57.7522 5.24359 53.8145 5.24359C49.8603 5.24359 47.4678 8.59549 47.4678 12.8102C47.4678 17.8049 50.2923 20.3271 54.3462 20.3271C56.3233 20.3271 57.8187 19.8791 58.9484 19.2485V15.9298C57.8187 16.494 56.5227 16.8425 54.8779 16.8425C53.2663 16.8425 51.8374 16.2783 51.6546 14.3203H59.7792C59.7792 14.1045 59.8124 13.2417 59.8124 12.8434ZM51.6048 11.267C51.6048 9.39198 52.7512 8.61208 53.7979 8.61208C54.8114 8.61208 55.8914 9.39198 55.8914 11.267H51.6048Z" fill="#1E2E50"/>
<path fill-rule="evenodd" clip-rule="evenodd" d="M41.0534 5.24359C39.4252 5.24359 38.3785 6.00689 37.797 6.53789L37.581 5.50909H33.9258V24.8572L38.0794 23.9777L38.096 19.2817C38.6942 19.7132 39.5747 20.3271 41.0368 20.3271C44.0108 20.3271 46.719 17.9377 46.719 12.6775C46.7024 7.86537 43.961 5.24359 41.0534 5.24359ZM40.0566 16.6765C39.0763 16.6765 38.4948 16.3281 38.096 15.8966L38.0794 9.74044C38.5114 9.25923 39.1095 8.92736 40.0566 8.92736C41.5685 8.92736 42.6152 10.6199 42.6152 12.7937C42.6152 15.0172 41.5851 16.6765 40.0566 16.6765Z" fill="#1E2E50"/>
<path fill-rule="evenodd" clip-rule="evenodd" d="M28.2119 4.26454L32.3822 3.36849V0L28.2119 0.879458V4.26454Z" fill="#1E2E50"/>
<path d="M32.3822 5.52563H28.2119V20.045H32.3822V5.52563Z" fill="#1E2E50"/>
<path fill-rule="evenodd" clip-rule="evenodd" d="M23.7423 6.75363L23.4764 5.52571H19.8877V20.0451H24.0413V10.2051C25.0216 8.92738 26.6831 9.15969 27.1981 9.34222V5.52571C26.6664 5.32658 24.7225 4.96153 23.7423 6.75363Z" fill="#1E2E50"/>
<path fill-rule="evenodd" clip-rule="evenodd" d="M15.4358 1.92487L11.3818 2.78773L11.3652 16.0792C11.3652 18.535 13.2095 20.3437 15.6684 20.3437C17.0308 20.3437 18.0277 20.0948 18.576 19.7961V16.4276C18.0443 16.6433 15.4192 17.4066 15.4192 14.9508V9.06009H18.576V5.52566H15.4192L15.4358 1.92487Z" fill="#1E2E50"/>
<path fill-rule="evenodd" clip-rule="evenodd" d="M4.20349 9.74044C4.20349 9.09329 4.73516 8.84439 5.61573 8.84439C6.87844 8.84439 8.47344 9.22604 9.73615 9.90638V6.00689C8.35713 5.45931 6.99474 5.24359 5.61573 5.24359C2.24297 5.24359 0 7.00251 0 9.93956C0 14.5194 6.31354 13.7893 6.31354 15.7639C6.31354 16.5272 5.64896 16.7761 4.71854 16.7761C3.33953 16.7761 1.57839 16.2119 0.18276 15.4486V19.3979C1.72792 20.0616 3.28969 20.3437 4.71854 20.3437C8.17437 20.3437 10.5503 18.6346 10.5503 15.6643C10.5336 10.7195 4.20349 11.5989 4.20349 9.74044Z" fill="#1E2E50"/>
</svg>
